<svg xmlns="http://www.w3.org/2000/svg" viewBox="0 0 1200 900" role="img" aria-label="Domain grid with thirty nine files">
  <rect width="1200" height="900" fill="#000"/>
  <g transform="translate(210 145)" font-family="JetBrains Mono,Consolas,monospace" font-size="16" text-anchor="middle">
    <script type="application/ecmascript"><![CDATA[]]></script>
    <g fill="none" stroke="#fff" stroke-width="2">
      <rect x="0" y="0" width="80" height="80"/><rect x="110" y="0" width="80" height="80"/><rect x="220" y="0" width="80" height="80"/><rect x="330" y="0" width="80" height="80"/><rect x="440" y="0" width="80" height="80"/><rect x="550" y="0" width="80" height="80"/><rect x="660" y="0" width="80" height="80"/>
      <rect x="0" y="110" width="80" height="80"/><rect x="110" y="110" width="80" height="80"/><rect x="220" y="110" width="80" height="80"/><rect x="330" y="110" width="80" height="80"/><rect x="440" y="110" width="80" height="80"/><rect x="550" y="110" width="80" height="80"/><rect x="660" y="110" width="80" height="80"/>
      <rect x="0" y="220" width="80" height="80"/><rect x="110" y="220" width="80" height="80"/><rect x="220" y="220" width="80" height="80"/><rect x="330" y="220" width="80" height="80"/><rect x="440" y="220" width="80" height="80"/><rect x="550" y="220" width="80" height="80"/><rect x="660" y="220" width="80" height="80"/>
      <rect x="0" y="330" width="80" height="80"/><rect x="110" y="330" width="80" height="80"/><rect x="220" y="330" width="80" height="80"/><rect x="330" y="330" width="80" height="80"/><rect x="440" y="330" width="80" height="80"/><rect x="550" y="330" width="80" height="80"/><rect x="660" y="330" width="80" height="80"/>
      <rect x="0" y="440" width="80" height="80"/><rect x="110" y="440" width="80" height="80"/><rect x="220" y="440" width="80" height="80"/><rect x="330" y="440" width="80" height="80"/><rect x="440" y="440" width="80" height="80"/><rect x="550" y="440" width="80" height="80"/><rect x="660" y="440" width="80" height="80"/>
      <rect x="0" y="550" width="80" height="80"/><rect x="110" y="550" width="80" height="80"/><rect x="220" y="550" width="80" height="80"/><rect x="330" y="550" width="80" height="80"/>
    </g>
    <g fill="#60a5fa"><rect x="0" y="0" width="80" height="80"/><rect x="110" y="0" width="80" height="80"/><rect x="220" y="0" width="80" height="80"/><rect x="330" y="0" width="80" height="80"/></g>
  </g>
  <text x="600" y="825" fill="#fff" font-family="JetBrains Mono,Consolas,monospace" font-size="30" text-anchor="middle" letter-spacing="3">DOMAIN FILES / SOP FIRST</text>
</svg>
