<svg xmlns="http://www.w3.org/2000/svg" viewBox="0 0 400 400" role="img" aria-labelledby="title desc">
  <title id="title">createAnnotatedViews false</title>
  <desc id="desc">Many tiny view squares are suppressed by a false setting.</desc>
  <rect width="400" height="400" fill="#000"/>
  <g fill="none" stroke="#fff" stroke-opacity=".45" stroke-width="1">
    <rect x="38" y="38" width="18" height="18"/><rect x="70" y="38" width="18" height="18"/><rect x="102" y="38" width="18" height="18"/><rect x="134" y="38" width="18" height="18"/><rect x="166" y="38" width="18" height="18"/><rect x="198" y="38" width="18" height="18"/><rect x="230" y="38" width="18" height="18"/><rect x="262" y="38" width="18" height="18"/><rect x="294" y="38" width="18" height="18"/><rect x="326" y="38" width="18" height="18"/>
    <rect x="38" y="70" width="18" height="18"/><rect x="70" y="70" width="18" height="18"/><rect x="102" y="70" width="18" height="18"/><rect x="134" y="70" width="18" height="18"/><rect x="166" y="70" width="18" height="18"/><rect x="198" y="70" width="18" height="18"/><rect x="230" y="70" width="18" height="18"/><rect x="262" y="70" width="18" height="18"/><rect x="294" y="70" width="18" height="18"/><rect x="326" y="70" width="18" height="18"/>
    <rect x="38" y="102" width="18" height="18"/><rect x="70" y="102" width="18" height="18"/><rect x="102" y="102" width="18" height="18"/><rect x="134" y="102" width="18" height="18"/><rect x="166" y="102" width="18" height="18"/><rect x="198" y="102" width="18" height="18"/><rect x="230" y="102" width="18" height="18"/><rect x="262" y="102" width="18" height="18"/><rect x="294" y="102" width="18" height="18"/><rect x="326" y="102" width="18" height="18"/>
    <rect x="38" y="134" width="18" height="18"/><rect x="70" y="134" width="18" height="18"/><rect x="102" y="134" width="18" height="18"/><rect x="134" y="134" width="18" height="18"/><rect x="166" y="134" width="18" height="18"/><rect x="198" y="134" width="18" height="18"/><rect x="230" y="134" width="18" height="18"/><rect x="262" y="134" width="18" height="18"/><rect x="294" y="134" width="18" height="18"/><rect x="326" y="134" width="18" height="18"/>
    <rect x="38" y="166" width="18" height="18"/><rect x="70" y="166" width="18" height="18"/><rect x="102" y="166" width="18" height="18"/><rect x="134" y="166" width="18" height="18"/><rect x="166" y="166" width="18" height="18"/><rect x="198" y="166" width="18" height="18"/><rect x="230" y="166" width="18" height="18"/><rect x="262" y="166" width="18" height="18"/><rect x="294" y="166" width="18" height="18"/><rect x="326" y="166" width="18" height="18"/>
  </g>
  <circle cx="200" cy="205" r="82" fill="#000" stroke="#fff" stroke-width="3"/>
  <text x="200" y="214" fill="#60a5fa" text-anchor="middle" font-family="JetBrains Mono, Consolas, monospace" font-size="28" font-weight="700">false</text>
  <text x="200" y="342" fill="#fff" text-anchor="middle" font-family="JetBrains Mono, Consolas, monospace" font-size="15">createAnnotatedViews=false</text>
</svg>
